HIERARCHY
ROOT hip
{
	OFFSET 0.000000 0.000000 0.000000
	CHANNELS 6 Xposition Yposition Zposition Xrotation Zrotation Yrotation 
	JOINT abdomen
	{
		OFFSET 0.000000 3.422050 0.000000
		CHANNELS 3 Xrotation Zrotation Yrotation 
		JOINT chest
		{
			OFFSET 0.000000 8.486693 -0.684411
			CHANNELS 3 Xrotation Zrotation Yrotation 
			JOINT neck
			{
				OFFSET 0.000000 10.266162 -0.273764
				CHANNELS 3 Xrotation Zrotation Yrotation 
				JOINT head
				{
					OFFSET 0.000000 3.148285 0.000000
					CHANNELS 3 Xrotation Zrotation Yrotation 
					End Site
					{
						OFFSET 0.000000 3.148289 0.000000
					}
				}
			}
			JOINT lCollar
			{
				OFFSET 3.422053 6.707223 -0.821293
				CHANNELS 3 Yrotation Zrotation Xrotation 
				JOINT lShldr
				{
					OFFSET 3.285171 0.000000 0.000000
					CHANNELS 3 Zrotation Yrotation Xrotation 
					JOINT lForeArm
					{
						OFFSET 10.129278 0.000000 0.000000
						CHANNELS 3 Yrotation Zrotation Xrotation 
						JOINT lHand
						{
							OFFSET 8.486692 0.000000 0.000000
							CHANNELS 3 Zrotation Yrotation Xrotation 
							End Site
							{
								OFFSET 4.106464 0.000000 0.000000
							}
						}
					}
				}
			}
			JOINT rCollar
			{
				OFFSET -3.558935 6.707223 -0.821293
				CHANNELS 3 Yrotation Zrotation Xrotation 
				JOINT rShldr
				{
					OFFSET -3.148289 0.000000 0.000000
					CHANNELS 3 Zrotation Yrotation Xrotation 
					JOINT rForeArm
					{
						OFFSET -10.266159 0.000000 0.000000
						CHANNELS 3 Yrotation Zrotation Xrotation 
						JOINT rHand
						{
							OFFSET -8.349810 0.000000 0.000000
							CHANNELS 3 Zrotation Yrotation Xrotation 
							End Site
							{
								OFFSET -4.106464 0.000000 0.000000
							}
						}
					}
				}
			}
		}
	}
	JOINT lThigh
	{
		OFFSET 5.338403 -1.642589 1.368821
		CHANNELS 3 Xrotation Zrotation Yrotation 
		JOINT lShin
		{
			OFFSET -2.053232 -20.121670 0.000000
			CHANNELS 3 Xrotation Zrotation Yrotation 
			JOINT lFoot
			{
				OFFSET 0.000000 -19.300380 -1.231939
				CHANNELS 3 Xrotation Yrotation Zrotation 
				End Site
				{
					OFFSET 0.000000 -2.463878 4.653993
				}
			}
		}
	}
	JOINT rThigh
	{
		OFFSET -5.338403 -1.642589 1.368821
		CHANNELS 3 Xrotation Zrotation Yrotation 
		JOINT rShin
		{
			OFFSET 2.053232 -20.121670 0.000000
			CHANNELS 3 Xrotation Zrotation Yrotation 
			JOINT rFoot
			{
				OFFSET 0.000000 -19.300380 -1.231939
				CHANNELS 3 Xrotation Yrotation Zrotation 
				End Site
				{
					OFFSET 0.000000 -2.463878 4.653993
				}
			}
		}
	}
}
MOTION
Frames: 18
Frame Time: 0.033264
19.995882 23.654415 22.262968 67.794945 0.000001 -0.000001 45.345100 -0.259244 -0.222541 -4.167237 -1.451299 -0.867379 -50.001373 0.000000 0.000000 -54.001434 0.000000 0.000000 8.615877 -16.217106 5.194602 87.405060 -55.718372 -56.949417 -14.098650 6.186757 -9.136030 57.765179 -1.046693 0.622896 -7.784166 15.773956 5.025957 -87.381012 55.710548 -56.922031 14.094886 -6.189935 -9.135818 -57.848991 1.102855 0.458436 -72.224014 9.428624 2.621381 94.250748 2.647808 -2.775723 54.459812 2.414577 5.946798 -72.198418 -9.470920 -2.739212 94.220062 -2.744692 2.805067 54.466385 -2.447942 -5.957284 
19.995882 23.647057 22.280241 67.595009 0.000001 -0.000001 45.145290 -0.259059 -0.222324 -3.285367 -1.451121 -0.867192 -50.001373 0.000000 0.000000 -54.001434 0.000000 0.000000 8.374005 -16.124712 4.765641 87.405060 -55.718372 -56.949417 -14.098650 6.186757 -9.136030 57.883076 -0.992206 0.589088 -7.588455 15.701637 4.607908 -87.381012 55.710548 -56.922031 14.094886 -6.189935 -9.135818 -57.962620 1.045236 0.433269 -71.941116 9.436217 2.632790 94.250748 2.647808 -2.775723 54.459812 2.414577 5.946798 -71.916061 -9.477506 -2.750124 94.220062 -2.744692 2.805067 54.466385 -2.447942 -5.957284 
19.995882 23.639698 22.297512 67.395042 0.000001 -0.000001 44.945480 -0.258873 -0.222107 -2.403709 -1.450945 -0.867002 -50.001373 0.000000 0.000000 -54.001434 0.000000 0.000000 8.132985 -16.030588 4.337316 87.405060 -55.718372 -56.949417 -14.098650 6.186757 -9.136030 58.000931 -0.937649 0.555392 -7.393375 15.627946 4.190289 -87.381012 55.710541 -56.922031 14.094886 -6.189935 -9.135818 -58.076210 0.987567 0.408216 -71.658211 9.443754 2.644237 94.250748 2.647808 -2.775723 54.459812 2.414577 5.946798 -71.633705 -9.484041 -2.761070 94.220062 -2.744692 2.805067 54.466385 -2.447942 -5.957284 
19.995882 23.632338 22.314783 67.195099 0.000001 -0.000001 44.745674 -0.258686 -0.221891 -1.522363 -1.450773 -0.866809 -50.001373 0.000000 0.000000 -54.001434 0.000000 0.000000 7.892841 -15.934748 3.909647 87.405060 -55.718372 -56.949417 -14.098650 6.186757 -9.136030 58.118752 -0.883024 0.521810 -7.198947 15.552899 3.773119 -87.381012 55.710548 -56.922031 14.094886 -6.189935 -9.135818 -58.189777 0.929849 0.383278 -71.375298 9.451234 2.655724 94.250748 2.647808 -2.775723 54.459812 2.414577 5.946798 -71.351357 -9.490522 -2.772048 94.220062 -2.744692 2.805067 54.466385 -2.447942 -5.957284 
19.995882 23.624979 22.332056 66.995155 0.000001 -0.000001 44.545883 -0.258499 -0.221676 -0.641434 -1.450603 -0.866614 -50.001373 0.000000 0.000000 -54.001434 0.000000 0.000000 7.653589 -15.837191 3.482655 87.405060 -55.718372 -56.949417 -14.098650 6.186757 -9.136030 58.236538 -0.828330 0.488341 -7.005182 15.476501 3.356413 -87.381012 55.710548 -56.922031 14.094886 -6.189935 -9.135818 -58.303307 0.872082 0.358456 -71.092400 9.458657 2.667245 94.250748 2.647808 -2.775723 54.459812 2.414577 5.946798 -71.069016 -9.496949 -2.783058 94.220062 -2.744692 2.805067 54.466385 -2.447942 -5.957284 
19.995882 23.617620 22.349327 66.795219 0.000001 -0.000001 44.346088 -0.258311 -0.221461 0.238972 -1.450437 -0.866416 -50.001373 0.000000 0.000000 -54.001434 0.000000 0.000000 7.415251 -15.737945 3.056361 87.405060 -55.718372 -56.949417 -14.098650 6.186757 -9.136030 58.354282 -0.773569 0.454985 -6.812095 15.398756 2.940187 -87.381012 55.710548 -56.922031 14.094886 -6.189935 -9.135818 -58.416824 0.814267 0.333749 -70.809517 9.466025 2.678805 94.250748 2.647808 -2.775723 54.459812 2.414577 5.946798 -70.786682 -9.503322 -2.794099 94.220062 -2.744692 2.805067 54.466385 -2.447942 -5.957284 
19.995882 23.610262 22.366598 66.595276 0.000001 -0.000001 44.146297 -0.258122 -0.221247 1.118757 -1.450274 -0.866216 -50.001373 0.000000 0.000000 -54.001434 0.000000 0.000000 7.177845 -15.637013 2.630782 87.405060 -55.718365 -56.949417 -14.098650 6.186757 -9.136030 58.471985 -0.718739 0.421743 -6.619703 15.319674 2.524456 -87.381012 55.710548 -56.922031 14.094886 -6.189935 -9.135818 -58.530308 0.756404 0.309157 -70.526627 9.473332 2.690400 94.250748 2.647808 -2.775723 54.459812 2.414577 5.946798 -70.504356 -9.509640 -2.805171 94.220062 -2.744692 2.805067 54.466385 -2.447942 -5.957284 
19.995882 23.602901 22.383871 66.395363 0.000001 -0.000001 43.946518 -0.257932 -0.221033 1.997811 -1.450114 -0.866014 -50.001373 0.000000 0.000000 -54.001434 0.000000 0.000000 6.941390 -15.534407 2.205940 87.405060 -55.718372 -56.949417 -14.098650 6.186757 -9.136030 58.589657 -0.663843 0.388614 -6.428019 15.239265 2.109239 -87.381012 55.710556 -56.922031 14.094886 -6.189935 -9.135818 -58.643764 0.698493 0.284681 -70.243782 9.480587 2.702030 94.250748 2.647808 -2.775723 54.459812 2.414577 5.946798 -70.222061 -9.515906 -2.816275 94.220062 -2.744692 2.805067 54.466385 -2.447942 -5.957284 
19.995882 23.595543 22.401142 66.195450 0.000001 -0.000001 43.746750 -0.257741 -0.220820 2.876039 -1.449957 -0.865810 -50.001373 0.000000 0.000000 -54.001434 0.000000 0.000000 6.705905 -15.430147 1.781853 87.405060 -55.718372 -56.949417 -14.098650 6.186757 -9.136030 58.707306 -0.608880 0.355599 -6.237058 15.157536 1.694549 -87.381012 55.710548 -56.922031 14.094886 -6.189935 -9.135818 -58.757202 0.640536 0.260320 -69.960938 9.487783 2.713696 94.250748 2.647808 -2.775723 54.459812 2.414577 5.946798 -69.939789 -9.522117 -2.827408 94.220062 -2.744692 2.805067 54.466385 -2.447942 -5.957284 
19.995882 23.588184 22.418415 65.995560 0.000001 -0.000001 43.546993 -0.257550 -0.220608 3.753331 -1.449803 -0.865603 -50.001373 0.000000 0.000000 -54.001434 0.000000 0.000000 6.471406 -15.324233 1.358539 87.405060 -55.718372 -56.949417 -14.098650 6.186757 -9.136030 58.824917 -0.553851 0.322699 -6.046834 15.074497 1.280405 -87.381012 55.710548 -56.922031 14.094886 -6.189935 -9.135818 -58.870602 0.582531 0.236074 -69.678116 9.494919 2.725396 94.250748 2.647808 -2.775723 54.459812 2.414577 5.946798 -69.657524 -9.528272 -2.838572 94.220062 -2.744692 2.805067 54.466385 -2.447942 -5.957284 
19.995882 23.580824 22.435686 65.795662 0.000001 -0.000001 43.347252 -0.257359 -0.220397 4.629593 -1.449654 -0.865394 -50.001373 0.000000 0.000000 -54.001434 0.000000 0.000000 6.237915 -15.216692 0.936019 87.405060 -55.718372 -56.949417 -14.098650 6.186757 -9.136030 58.942486 -0.498755 0.289913 -5.857360 14.990153 0.866820 -87.381012 55.710548 -56.922031 14.094886 -6.189935 -9.135818 -58.983978 0.524481 0.211945 -69.395317 9.502000 2.737133 94.250748 2.647808 -2.775723 54.459812 2.414577 5.946798 -69.375290 -9.534372 -2.849765 94.220062 -2.744692 2.805067 54.466385 -2.447942 -5.957284 
19.995882 23.573465 22.452957 65.595787 0.000001 -0.000001 43.147518 -0.257166 -0.220186 5.504723 -1.449507 -0.865183 -50.001373 0.000000 0.000000 -54.001434 0.000000 0.000000 6.005443 -15.107521 0.514307 87.405060 -55.718372 -56.949417 -14.098650 6.186757 -9.136030 59.060024 -0.443595 0.257241 -5.668653 14.904520 0.453809 -87.381012 55.710548 -56.922031 14.094886 -6.189935 -9.135818 -59.097317 0.466384 0.187931 -69.112549 9.509019 2.748901 94.250748 2.647808 -2.775723 54.459812 2.414577 5.946798 -69.093094 -9.540416 -2.860986 94.220062 -2.744692 2.805067 54.466385 -2.447942 -5.957284 
19.995882 23.566107 22.470230 65.395920 0.000001 -0.000001 42.947803 -0.256973 -0.219976 6.378617 -1.449364 -0.864970 -50.001373 0.000000 0.000000 -54.001434 0.000000 0.000000 5.774011 -14.996746 0.093424 87.405060 -55.718372 -56.949417 -14.098650 6.186757 -9.136030 59.177517 -0.388369 0.224683 -5.480722 14.817600 0.041388 -87.381012 55.710548 -56.922031 14.094886 -6.189935 -9.135818 -59.210636 0.408241 0.164033 -68.829834 9.515984 2.760705 94.250748 2.647808 -2.775723 54.459812 2.414577 5.946798 -68.810944 -9.546408 -2.872237 94.220062 -2.744692 2.805067 54.466385 -2.447942 -5.957284 
19.995882 23.558748 22.487501 65.196083 0.000001 -0.000001 42.748104 -0.256779 -0.219766 7.251184 -1.449224 -0.864756 -50.001373 0.000000 0.000000 -54.001434 0.000000 0.000000 5.543635 -14.884376 -0.326615 87.405060 -55.718372 -56.949417 -14.098650 6.186757 -9.136030 59.294983 -0.333078 0.192240 -5.293584 14.729412 -0.370429 -87.381012 55.710548 -56.922031 14.094886 -6.189935 -9.135818 -59.323917 0.350053 0.140251 -68.547142 9.522890 2.772540 94.250748 2.647808 -2.775723 54.459812 2.414577 5.946798 -68.528809 -9.552340 -2.883516 94.220062 -2.744692 2.805067 54.466385 -2.447942 -5.957284 
19.995882 23.551388 22.504772 64.996262 0.000001 -0.000001 42.548416 -0.256584 -0.219558 8.122316 -1.449088 -0.864540 -50.001373 0.000000 0.000000 -54.001434 0.000000 0.000000 5.314332 -14.770428 -0.745790 87.405060 -55.718365 -56.949417 -14.098650 6.186757 -9.136030 59.412407 -0.277724 0.159912 -5.107250 14.639953 -0.781625 -87.381012 55.710548 -56.922031 14.094886 -6.189935 -9.135818 -59.437176 0.291821 0.116585 -68.264496 9.529735 2.784408 94.250748 2.647808 -2.775723 54.459812 2.414577 5.946798 -68.246727 -9.558217 -2.894822 94.220062 -2.744692 2.805067 54.466385 -2.447942 -5.957284 
19.995882 23.544029 22.522045 64.796432 0.000001 -0.000001 42.348747 -0.256388 -0.219350 8.991922 -1.448955 -0.864321 -50.001373 0.000000 0.000000 -54.001434 0.000000 0.000000 5.086120 -14.654912 -1.164086 87.405060 -55.718372 -56.949417 -14.098650 6.186757 -9.136030 59.529804 -0.222305 0.127699 -4.921734 14.549240 -1.192188 -87.381012 55.710548 -56.922031 14.094886 -6.189935 -9.135818 -59.550400 0.233544 0.093035 -67.981895 9.536522 2.796308 94.250748 2.647808 -2.775723 54.459812 2.414577 5.946798 -67.964699 -9.564042 -2.906156 94.220062 -2.744692 2.805067 54.466385 -2.447942 -5.957284 
19.995882 23.536671 22.539316 64.596642 0.000001 -0.000001 42.149101 -0.256192 -0.219142 9.859909 -1.448826 -0.864102 -50.001373 0.000000 0.000000 -54.001434 0.000000 0.000000 4.859010 -14.537846 -1.581488 87.405060 -55.718372 -56.949417 -14.098650 6.186757 -9.136030 59.647156 -0.166823 0.095602 -4.737048 14.457284 -1.602104 -87.381012 55.710548 -56.922031 14.094886 -6.189935 -9.135818 -59.663609 0.175223 0.069602 -67.699326 9.543248 2.808241 94.250748 2.647808 -2.775723 54.459812 2.414577 5.946798 -67.682693 -9.569806 -2.917517 94.220062 -2.744692 2.805067 54.466385 -2.447942 -5.957284 
19.995882 23.529312 22.556587 64.396881 0.000001 -0.000001 41.949482 -0.255995 -0.218936 10.726177 -1.448700 -0.863881 -50.001373 0.000000 0.000000 -54.001434 0.000000 0.000000 4.633020 -14.419243 -1.997977 87.405060 -55.718372 -56.949417 -14.098650 6.186757 -9.136030 59.764477 -0.111278 0.063619 -4.553206 14.364098 -2.011358 -87.381012 55.710548 -56.922031 14.094886 -6.189935 -9.135818 -59.776787 0.116859 0.046285 -67.416817 9.549915 2.820204 94.250748 2.647808 -2.775723 54.459812 2.414577 5.946798 -67.400742 -9.575514 -2.928904 94.220062 -2.744692 2.805067 54.466385 -2.447942 -5.957284 
